PathFileType	4	(X/Y/Z)	Patient4_TMGait_0pt7_02_left_15.trc.trc
DataRate	CameraRate	NumFrames	NumMarkers	Units	OrigDataRate	OrigDataStartFrame	OrigNumFrames
83.832335329341	83.832335329341	4	33	mm	83.832335329341	89	       141
Frame#	Time	Sacral			L.Shoulder			Chest			R.Shoulder			Neck			R.ASIS			L.ASIS			R.Thigh.Superior			R.Thigh.Lateral			R.Thigh.Inferior			R.Patella			L.Thigh.Superior			L.Thigh.Lateral			L.Thigh.Inferior			L.Patella			L.Shank.Superior			L.Shank.Lateral			L.Shank.Inferior			R.Shank.Superior			R.Shank.Lateral			R.Shank.Inferior			R.Heel			R.Midfoot.Superior			R.Midfoot.Lateral			R.Toe			L.Heel			L.Midfoot.Lateral			L.Midfoot.Superior			L.Toe			L.Elbow			L.Wrist			R.Elbow			R.Wrist			
		X1	Y1	Z1	X2	Y2	Z2	X3	Y3	Z3	X4	Y4	Z4	X5	Y5	Z5	X6	Y6	Z6	X7	Y7	Z7	X8	Y8	Z8	X9	Y9	Z9	X10	Y10	Z10	X11	Y11	Z11	X12	Y12	Z12	X13	Y13	Z13	X14	Y14	Z14	X15	Y15	Z15	X16	Y16	Z16	X17	Y17	Z17	X18	Y18	Z18	X19	Y19	Z19	X20	Y20	Z20	X21	Y21	Z21	X22	Y22	Z22	X23	Y23	Z23	X24	Y24	Z24	X25	Y25	Z25	X26	Y26	Z26	X27	Y27	Z27	X28	Y28	Z28	X29	Y29	Z29	X30	Y30	Z30	X31	Y31	Z31	X32	Y32	Z32	X33	Y33	Z33	

89	17.889714285714	809.238392262631	1005.932872732777	495.898324947680	997.231745713530	1429.555400568984	308.196436083273	1102.514876913172	1353.759930606343	466.199901898392	1026.599536579052	1432.358624575872	641.134303930827	1003.506665730281	1488.998289593708	462.392410304540	1041.040882887619	933.495645277611	602.532731675986	1016.943802582933	960.614438204305	327.906275307961	1101.622925185140	750.010204745502	572.835557248912	1033.345838919541	632.908982593703	632.890436704884	1118.370642784623	590.490525559548	553.896339466538	1130.921776524470	501.236933192976	561.228090034931	1040.230079599836	737.007497170398	343.981517037820	937.935237247777	629.842054166822	285.170254173617	1021.261649571647	537.885194041427	335.108133942371	1007.582118192791	453.771753075455	332.486040797800	937.362732107973	400.093206205430	331.884302826854	793.677442230527	359.064662866087	291.145420488754	782.013305087028	231.302991740973	350.086467886060	1108.122004622915	410.910663241660	567.670438057090	1043.498956779849	301.628921161918	628.048158604635	1094.435741353306	210.437130353437	564.941622787528	973.171205032346	42.091681738803	532.249807118214	1144.374252645265	98.460026053484	567.463316313749	1057.298368007879	36.784989691730	605.463505731875	1264.971504560008	47.202417158511	592.217417153738	592.726240474049	165.293035785977	397.511624174633	647.933981417972	114.849134429205	319.403829235229	752.757977747344	127.894895262548	335.935978356947	832.194159873610	31.033626787689	315.652686675495	996.455146683999	1092.033688290936	167.500615821093	1234.805816354747	997.567730198554	190.363830166860	899.930122740617	1111.925281756515	759.572668778035	877.399141541575	851.481648148318	767.408093349276	
90	17.901642857143	809.556968976717	1007.366086610653	499.354606206596	996.345859616378	1431.167788247454	310.944504572347	1103.229336354349	1354.704218789988	467.568829393980	1029.459723579395	1432.947160350605	643.500240709189	1004.332329087849	1490.159836159144	465.308443890477	1041.791914396822	934.631699442137	604.017240246642	1015.875775733241	961.578702661190	329.628139752162	1099.691748996618	748.789902787012	575.766080270274	1029.157363565385	633.078103639878	634.812460814529	1113.509710455089	589.605455486171	555.608715248189	1124.603706554262	500.566661154475	562.357621602574	1045.775932391419	740.500494490632	346.071929873132	948.785741032768	630.233592756118	286.129490416765	1035.294543025447	540.533291210603	336.269080133139	1023.070272012046	455.008464335331	332.989859433051	950.824923750866	401.424007530938	332.556775722381	805.707726236244	365.558335427272	291.657801301207	789.277589531706	238.494416208358	350.663490516603	1101.491620691752	410.571864978797	568.840317658422	1036.447327375373	301.460189739143	629.049981803995	1086.851686640772	210.221842054713	565.547469500447	964.939057073331	42.097650339082	532.439882589088	1136.222317998735	98.562136394058	567.698225063962	1049.046627492710	36.763094197062	605.616333820964	1256.756033043376	46.932865735462	592.414450124182	597.721559079866	182.228458289133	398.015814422600	650.061994756358	128.571495221880	319.818465774824	755.742546426014	135.459095425705	336.257289475708	828.918469122081	31.361620774942	315.625701868129	989.561166099854	1092.054960736446	173.112381028076	1222.242321794322	981.901706697527	191.907477406488	910.199021871835	1108.920102978069	762.622581999053	897.639386279041	847.500164937910	767.783983857155	
91	17.913571428571	809.737162287034	1008.663752220303	502.680912085780	995.091590145509	1432.635210786132	313.561665189920	1103.721273883519	1355.482722401844	468.688401548725	1032.260039496247	1433.288102405068	645.723361136481	1004.987573470510	1491.180990970104	468.105149410215	1042.328476296279	935.655243912587	605.354823299956	1014.408433581201	962.261154899353	331.319440748447	1097.454115512841	747.553438448387	578.475004132602	1024.848899365848	633.237260026856	636.686020645072	1108.393890810079	588.719068737643	557.185569227891	1118.035985866960	499.935366683002	563.445511232046	1051.154292408706	744.337321211663	348.225369406014	959.714418601527	631.164007383211	286.946309833050	1049.212412169097	543.903229455184	337.487552015041	1038.677704577905	457.058944450297	333.583343944167	964.737530272189	403.357971741971	333.210896067861	818.467264931807	372.135556050786	292.167954352381	797.741531875984	245.853030737228	351.323974455484	1094.684480313050	410.249528452309	569.948446138041	1029.292437116042	301.286271439460	630.016313871961	1079.205704209014	210.028575795191	566.109552183289	956.656750933200	42.133469265483	532.620388842695	1128.059091584948	98.607894394995	567.892567351396	1040.751377984986	36.737296445430	605.748934547012	1248.511203711028	46.566754474679	592.571641805077	604.469260073207	198.315027926188	398.638761478152	654.196187012221	142.024017047565	320.312904871555	760.414427482907	143.439705098722	336.745553758264	827.890927538473	32.609236986987	315.658358591577	982.799892567442	1092.027170287218	178.607190916563	1208.238319245774	965.767024412553	193.354001471009	920.935216744020	1105.734813530412	765.554593602719	918.712925397817	843.719727634958	768.152957218370	
92	17.925500000000	809.780672389367	1009.839443161191	505.850075951387	993.521352753864	1433.959996478062	316.025072553786	1103.995679700533	1356.117205802373	469.569705319579	1034.958565429814	1433.422729844510	647.783259800000	1005.486326002622	1492.078571378374	470.742363632516	1042.651970629584	936.592290709556	606.589603048775	1012.622182122637	962.708470541088	333.006602189423	1094.966318847467	746.392135860695	580.876372738898	1020.525224057155	633.419123778765	638.495234641106	1103.125865035390	587.868391447464	558.622429048031	1111.332405680145	499.363862714941	564.504054456547	1056.266588715959	748.525689396005	350.445175869338	970.515370596396	632.705192202045	287.628379512838	1062.800902005366	548.026801573669	338.700536454380	1054.193616356064	459.970967653945	334.157312144038	978.921217288897	405.928932534341	333.775183098568	831.748184676335	378.660939812878	292.664575171236	807.391001567168	253.148488268961	352.006011346813	1087.793865916957	409.955451912553	571.000255121017	1022.092139358207	301.137550689420	630.954722411284	1071.535113971802	209.866452310125	566.635533596064	948.329180800226	42.202537483555	532.801450536528	1119.877336667544	98.600867042658	568.063994681345	1032.418278698632	36.717213148999	605.875990316934	1240.237262965832	46.139392238720	592.707215827754	612.902218055169	212.919626171092	399.337565688423	660.414667037802	154.622119050097	320.858006491228	766.906588165051	151.501250483198	337.340335443498	829.531863758000	34.849325760605	315.750824967594	976.185542790791	1091.924286478320	183.967024226932	1192.683268271079	949.413477266079	194.716570528859	932.166243189815	1102.407776206677	768.279152279969	940.551547017739	840.237881730869	768.461999973179	
